<?xml version="1.0" standalone="no"?>
<!DOCTYPE svg PUBLIC "-//W3C//DTD SVG 20010904//EN"
 "http://www.w3.org/TR/2001/REC-SVG-20010904/DTD/svg10.dtd">
<svg version="1.0" xmlns="http://www.w3.org/2000/svg"
 width="225.000000pt" height="225.000000pt" viewBox="0 0 225.000000 225.000000"
 preserveAspectRatio="xMidYMid meet">

<g transform="translate(0.000000,225.000000) scale(0.100000,-0.100000)"
fill="#000000" stroke="none">
<path d="M1855 2228 c-16 -6 -48 -23 -70 -39 -56 -39 -1042 -1030 -1048 -1054
-141 -513 -142 -518 -93 -531 12 -3 72 8 132 24 60 16 172 46 249 67 l140 38
517 516 c351 351 523 530 538 559 55 111 33 209 -69 316 -36 37 -84 77 -106
88 -46 24 -147 33 -190 16z m157 -128 c50 -33 115 -111 124 -147 11 -44 -6
-91 -51 -140 l-44 -48 -133 132 -132 132 29 32 c72 77 133 88 207 39z m-62
-415 c0 -6 -182 -192 -405 -415 l-405 -405 -132 133 -133 132 410 410 410 410
127 -127 c71 -70 128 -132 128 -138z m-1015 -765 c54 -54 97 -101 94 -104 -5
-5 -259 -76 -272 -76 -5 0 -7 15 -3 33 11 57 69 247 75 247 4 0 51 -45 106
-100z"/>
<path d="M176 2000 c-61 -24 -109 -69 -144 -135 l-27 -50 -3 -779 c-3 -857 -4
-839 58 -923 22 -29 52 -53 98 -75 l67 -33 846 0 845 0 59 30 c66 34 125 101
144 165 16 54 15 602 -1 618 -20 20 -76 15 -88 -7 -6 -12 -10 -123 -10 -291 0
-206 -3 -278 -14 -303 -17 -42 -66 -83 -114 -97 -24 -6 -315 -10 -832 -10
-840 1 -841 1 -892 47 -11 10 -29 36 -39 58 -17 38 -19 84 -19 799 0 751 0
760 21 803 14 29 35 52 63 68 43 25 43 25 317 25 298 0 319 4 319 55 0 54 -7
55 -318 55 -259 -1 -292 -3 -336 -20z"/>
</g>
</svg>
