<?xml version="1.0" standalone="no"?>
<!DOCTYPE svg PUBLIC "-//W3C//DTD SVG 20010904//EN"
 "http://www.w3.org/TR/2001/REC-SVG-20010904/DTD/svg10.dtd">
<svg version="1.0" xmlns="http://www.w3.org/2000/svg"
 width="225.000000pt" height="225.000000pt" viewBox="0 0 225.000000 225.000000"
 preserveAspectRatio="xMidYMid meet">

<g transform="translate(0.000000,225.000000) scale(0.100000,-0.100000)"
fill="#000000" stroke="none">
<path d="M944 2044 c-23 -8 -60 -31 -83 -51 -40 -34 -91 -116 -91 -148 0 -13
-18 -15 -109 -15 -60 0 -122 -5 -138 -11 -42 -15 -92 -68 -103 -109 -12 -41
-13 -120 -2 -137 4 -6 34 -13 67 -15 l60 -3 33 -605 c31 -573 34 -607 56 -650
13 -26 40 -57 65 -75 l43 -30 383 0 383 0 44 30 c86 60 83 41 120 725 l33 605
60 3 c33 2 63 9 67 15 11 17 10 96 -2 137 -11 41 -61 94 -103 109 -16 6 -78
11 -138 11 -91 0 -109 2 -109 15 0 32 -50 114 -91 148 -64 55 -112 67 -268 66
-92 0 -149 -5 -177 -15z m369 -82 c40 -26 81 -73 92 -109 l6 -23 -286 0 -286
0 7 23 c8 27 35 66 62 90 42 38 90 47 232 45 122 -3 139 -5 173 -26z m417
-229 c20 -18 33 -41 37 -65 l6 -38 -648 0 -648 0 6 38 c4 24 17 47 37 65 l30
27 575 0 575 0 30 -27z m-915 -185 c2 -7 8 -236 14 -508 6 -272 14 -559 17
-637 l6 -143 -38 0 c-50 0 -100 31 -119 72 -11 25 -22 171 -45 583 -16 303
-30 571 -30 598 l0 47 95 0 c68 0 97 -4 100 -12z m275 -638 l0 -650 -85 0
c-47 0 -85 1 -85 3 -2 19 -30 1138 -30 1205 l0 92 100 0 100 0 0 -650z m270
558 c0 -67 -28 -1186 -30 -1205 0 -2 -38 -3 -85 -3 l-85 0 0 650 0 650 100 0
100 0 0 -92z m270 45 c0 -26 -14 -296 -30 -601 -24 -429 -34 -561 -46 -584
-20 -39 -70 -68 -118 -68 l-38 0 6 143 c3 78 11 365 17 637 6 272 12 501 14
508 3 8 32 12 100 12 l95 0 0 -47z"/>
</g>
</svg>
