<?xml version="1.0" standalone="no"?>
<!DOCTYPE svg PUBLIC "-//W3C//DTD SVG 20010904//EN"
 "http://www.w3.org/TR/2001/REC-SVG-20010904/DTD/svg10.dtd">
<svg version="1.0" xmlns="http://www.w3.org/2000/svg"
 width="225.000000pt" height="225.000000pt" viewBox="0 0 225.000000 225.000000"
 preserveAspectRatio="xMidYMid meet">

<g transform="translate(0.000000,225.000000) scale(0.100000,-0.100000)"
fill="#000000" stroke="none">
<path d="M1052 2225 c-73 -13 -143 -30 -156 -38 -36 -24 -49 -66 -38 -126 9
-48 8 -52 -12 -56 -11 -3 -88 -16 -170 -30 -165 -29 -198 -41 -227 -88 -17
-27 -20 -43 -15 -105 5 -82 16 -102 55 -102 32 0 1310 218 1322 226 12 7 11
52 -2 112 -14 66 -61 112 -121 119 -24 3 -106 -6 -189 -21 -80 -14 -153 -26
-162 -26 -11 0 -18 13 -23 46 -9 60 -46 103 -94 109 -19 2 -95 -6 -168 -20z
m179 -110 c4 -22 6 -41 5 -42 -1 -1 -55 -11 -121 -23 -66 -11 -130 -22 -142
-25 -18 -4 -22 1 -28 36 -4 23 -3 45 2 50 12 12 207 48 248 46 27 -2 30 -6 36
-42z m474 -80 c14 -13 25 -32 25 -42 0 -16 -19 -22 -132 -41 -73 -12 -239 -40
-368 -62 -719 -124 -703 -121 -712 -108 -13 21 -9 47 10 66 14 14 106 33 392
81 206 35 458 79 560 97 102 17 189 33 193 33 4 1 19 -10 32 -24z"/>
<path d="M624 1639 c-18 -5 -48 -27 -68 -49 -49 -54 -50 18 19 -1159 18 -293
26 -328 91 -378 67 -51 81 -52 499 -53 226 0 405 4 424 10 59 17 109 59 135
114 24 49 26 70 50 491 44 774 50 889 43 917 -11 42 -64 96 -105 108 -46 13
-1044 12 -1088 -1z m1092 -104 c23 -23 24 -30 19 -97 -5 -62 -41 -706 -60
-1068 -10 -187 -13 -201 -55 -242 l-38 -38 -412 0 -412 0 -38 38 c-24 24 -40
51 -44 72 -3 19 -19 285 -36 590 -17 305 -33 592 -36 637 -6 78 -6 82 19 107
l26 26 521 0 521 0 25 -25z"/>
<path d="M743 1460 c-18 -10 -40 -31 -49 -46 -17 -25 -17 -50 13 -585 33 -601
31 -587 88 -625 35 -23 100 -21 133 3 60 45 59 18 26 625 -33 607 -32 601 -98
632 -45 21 -74 20 -113 -4z m85 -83 c15 -17 73 -1066 60 -1089 -10 -21 -41
-24 -56 -5 -14 16 -72 1067 -60 1090 10 20 41 23 56 4z"/>
<path d="M1112 1464 c-45 -23 -62 -61 -62 -138 0 -62 1 -66 25 -72 37 -9 54
11 57 68 3 58 25 81 56 62 16 -10 17 -49 20 -543 1 -355 -1 -538 -8 -551 -12
-22 -40 -26 -58 -8 -9 9 -12 99 -12 344 0 357 0 360 -52 352 l-23 -3 -3 -357
-2 -356 25 -30 c53 -63 137 -63 190 -1 l25 31 0 569 0 569 -33 36 c-39 43 -94
54 -145 28z"/>
<path d="M1485 1466 c-68 -30 -66 -23 -97 -551 -15 -264 -27 -519 -28 -567 0
-79 2 -89 26 -117 49 -59 139 -59 187 -1 30 36 28 13 63 661 23 419 25 490 13
514 -29 59 -106 88 -164 61z m83 -136 c2 -30 -4 -179 -12 -330 -9 -151 -21
-367 -27 -480 -5 -113 -14 -215 -19 -227 -11 -25 -41 -30 -59 -10 -15 18 44
1074 61 1094 6 8 21 13 32 11 18 -3 21 -11 24 -58z"/>
<path d="M1062 1148 c-34 -34 6 -90 48 -68 35 19 20 80 -20 80 -9 0 -21 -5
-28 -12z"/>
</g>
</svg>
